<svg viewBox="0 0 46 46" fill="none" xmlns="http://www.w3.org/2000/svg">
<path d="M36.2653 21.7765C35.4969 20.047 34.3798 18.4947 32.984 17.2167L31.8322 16.1599C31.7931 16.125 31.746 16.1002 31.6951 16.0877C31.6442 16.0753 31.591 16.0755 31.5402 16.0884C31.4894 16.1013 31.4425 16.1265 31.4037 16.1617C31.3649 16.1969 31.3354 16.2411 31.3176 16.2905L30.8031 17.7669C30.4825 18.6931 29.8927 19.6391 29.0575 20.5692C29.0021 20.6286 28.9388 20.6444 28.8953 20.6484C28.8517 20.6523 28.7844 20.6444 28.725 20.589C28.6696 20.5415 28.6419 20.4703 28.6459 20.399C28.7923 18.0162 28.0799 15.3286 26.5204 12.4036C25.23 9.97329 23.437 8.07734 21.1967 6.75532L19.562 5.79349C19.3482 5.66683 19.0751 5.83307 19.087 6.08244L19.1741 7.98234C19.2334 9.28061 19.083 10.4285 18.7268 11.3824C18.2914 12.55 17.666 13.6346 16.8665 14.6083C16.31 15.285 15.6794 15.897 14.9864 16.433C13.3172 17.7161 11.96 19.3601 11.0163 21.2421C10.075 23.1405 9.58464 25.2306 9.5835 27.3495C9.5835 29.2177 9.9516 31.0266 10.6799 32.7326C11.3831 34.3751 12.398 35.8657 13.6683 37.1222C14.9507 38.3888 16.439 39.3862 18.0975 40.0789C19.8153 40.7993 21.636 41.1634 23.5161 41.1634C25.3963 41.1634 27.217 40.7993 28.9348 40.0828C30.5892 39.3942 32.0936 38.3899 33.364 37.1261C34.6464 35.8595 35.6518 34.3792 36.3524 32.7365C37.0796 31.0352 37.4526 29.2037 37.4488 27.3535C37.4488 25.4219 37.053 23.5457 36.2653 21.7765Z" fill="#E55C5C"/>
</svg>
